<?xml version="1.0" encoding="utf-8"?>
<!-- Generator: Adobe Illustrator 18.1.1, SVG Export Plug-In . SVG Version: 6.00 Build 0)  -->
<svg version="1.1" id="Слой_1" xmlns="http://www.w3.org/2000/svg" xmlns:xlink="http://www.w3.org/1999/xlink" x="0px" y="0px"
	 viewBox="-262.5 401.3 40 40" enable-background="new -262.5 401.3 40 40" xml:space="preserve">
<linearGradient id="SVGID_1_" gradientUnits="userSpaceOnUse" x1="-223.5918" y1="417.3203" x2="-262.4486" y2="427.7319" gradientTransform="matrix(1 0 0 -1 0 843.67)">
	<stop  offset="0" style="stop-color:#00BCD4"/>
	<stop  offset="1" style="stop-color:#2196F3"/>
</linearGradient>
<path fill="url(#SVGID_1_)" d="M-252.5,438.6c9.6,5.5,21.8,2.2,27.3-7.3c5.5-9.6,2.2-21.8-7.3-27.3c-9.6-5.5-21.8-2.2-27.3,7.3
	C-265.3,420.8-262.1,433.1-252.5,438.6z"/>
<path fill="#FFFFFF" d="M-241.9,434c-0.6,0.2-1.1-0.1-1.2-0.7l-0.8-2.9c-0.2-0.6,0.1-1.1,0.7-1.2c0.6-0.2,1.1,0.1,1.2,0.7l0.8,2.9
	C-241,433.4-241.3,433.9-241.9,434z"/>
<path fill="#FFFFFF" d="M-237.7,433c-0.6,0.2-1.1-0.1-1.2-0.7l-0.8-2.9c-0.2-0.6,0.1-1.1,0.7-1.2s1.1,0.1,1.2,0.7l0.8,2.9
	C-236.8,432.4-237.1,432.9-237.7,433z"/>
<path fill="#FFFFFF" d="M-247.3,413.8c-0.6,0.2-1.1-0.1-1.2-0.7l-0.8-2.9c-0.2-0.6,0.1-1.1,0.7-1.2c0.6-0.2,1.1,0.1,1.2,0.7l0.8,2.9
	C-246.5,413.1-246.8,413.6-247.3,413.8z"/>
<path fill="#FFFFFF" d="M-243.2,412.7c-0.6,0.2-1.1-0.1-1.2-0.7l-0.8-2.9c-0.2-0.6,0.1-1.1,0.7-1.2c0.6-0.2,1.1,0.1,1.2,0.7l0.8,2.9
	C-242.3,412.1-242.6,412.6-243.2,412.7z"/>
<path fill="#FFFFFF" d="M-245.8,411.6l2.8-0.8c1.8-0.5,3.4-0.5,4.6,0c1.3,0.5,2.1,1.5,2.6,3.1c0.6,2.3-0.1,4.1-2,5.3
	c2.8,0,4.5,1.1,5,3.3c1,3.7-0.8,6.2-5.5,7.5l-8.5,2.3l-0.6-2.4c0.4-0.3,1-0.7,1.8-1.2l-3.5-12.8l-2.2-0.3l-0.6-2.2L-245.8,411.6z
	 M-241.4,421.8l-1.6,0.4l1.4,5.3l2.2-0.6c0.9-0.3,1.6-0.7,2-1.2c0.4-0.6,0.5-1.2,0.3-2c-0.3-1-0.7-1.6-1.4-1.9
	C-239.2,421.5-240.2,421.5-241.4,421.8z M-245,414.8l1.2,4.6l1.6-0.4c2-0.5,2.8-1.7,2.4-3.3c-0.2-0.7-0.5-1.1-1.1-1.4
	c-0.5-0.2-1.1-0.3-1.8-0.1L-245,414.8z"/>
</svg>
