<?xml version="1.0" encoding="utf-8"?>
<!-- Generator: Adobe Illustrator 18.1.1, SVG Export Plug-In . SVG Version: 6.00 Build 0)  -->
<svg version="1.1" id="Слой_1" xmlns="http://www.w3.org/2000/svg" xmlns:xlink="http://www.w3.org/1999/xlink" x="0px" y="0px"
	 viewBox="-262.5 401.3 40 40" enable-background="new -262.5 401.3 40 40" xml:space="preserve">
<linearGradient id="SVGID_1_" gradientUnits="userSpaceOnUse" x1="-223.5918" y1="417.3203" x2="-262.4486" y2="427.7319" gradientTransform="matrix(1 0 0 -1 0 843.67)">
	<stop  offset="0" style="stop-color:#00BCD4"/>
	<stop  offset="1" style="stop-color:#2196F3"/>
</linearGradient>
<path fill="url(#SVGID_1_)" d="M-252.5,438.6c9.6,5.5,21.8,2.2,27.3-7.3c5.5-9.6,2.2-21.8-7.3-27.3c-9.6-5.5-21.8-2.2-27.3,7.3
	C-265.3,420.8-262.1,433.1-252.5,438.6z"/>
<path fill="#FFFFFF" d="M-248.7,432.6c-0.6-0.2-0.9-0.6-0.7-1.2l0.8-2.9c0.2-0.6,0.6-0.9,1.2-0.7c0.6,0.2,0.9,0.6,0.7,1.2l-0.8,2.9
	C-247.6,432.5-248.1,432.8-248.7,432.6z"/>
<path fill="#FFFFFF" d="M-244.5,433.8c-0.6-0.2-0.9-0.6-0.7-1.2l0.8-2.9c0.2-0.6,0.6-0.9,1.2-0.7s0.9,0.6,0.7,1.2l-0.8,2.9
	C-243.5,433.7-244,434-244.5,433.8z"/>
<path fill="#FFFFFF" d="M-243.2,412.3c-0.6-0.2-0.9-0.6-0.7-1.2l0.8-2.9c0.2-0.6,0.6-0.9,1.2-0.7c0.6,0.2,0.9,0.6,0.7,1.2l-0.8,2.9
	C-242.2,412.2-242.6,412.5-243.2,412.3z"/>
<path fill="#FFFFFF" d="M-239.1,413.5c-0.6-0.2-0.9-0.6-0.7-1.2l0.8-2.9c0.2-0.6,0.6-0.9,1.2-0.7c0.6,0.2,0.9,0.6,0.7,1.2l-0.8,2.9
	C-238,413.4-238.5,413.7-239.1,413.5z"/>
<path fill="#FFFFFF" d="M-240.9,411.2l2.8,0.8c1.8,0.5,3.2,1.3,4,2.3c0.9,1.1,1.1,2.4,0.7,3.9c-0.6,2.3-2.1,3.5-4.4,3.6
	c2.4,1.4,3.3,3.2,2.7,5.4c-1,3.7-3.8,5-8.5,3.7l-8.5-2.3l0.6-2.4c0.5,0,1.2-0.1,2.2-0.1l3.4-12.8l-1.8-1.4l0.6-2.2L-240.9,411.2z
	 M-242.1,422.3l-1.6-0.4l-1.4,5.3l2.2,0.6c0.9,0.3,1.7,0.2,2.3-0.1c0.6-0.3,1-0.8,1.2-1.6c0.3-1,0.2-1.8-0.3-2.4
	C-240.1,423.1-240.9,422.6-242.1,422.3z M-241.7,414.4l-1.2,4.6l1.6,0.4c2,0.5,3.3,0,3.7-1.7c0.2-0.7,0.1-1.3-0.2-1.7
	c-0.3-0.5-0.8-0.8-1.5-1L-241.7,414.4z"/>
</svg>
