<svg width="41" height="41" viewBox="0 0 41 41" fill="none" xmlns="http://www.w3.org/2000/svg">
<path d="M20.497 40.003C31.5435 40.003 40.4985 31.0481 40.4985 20.0015C40.4985 8.95498 31.5435 0 20.497 0C9.45047 0 0.495483 8.95498 0.495483 20.0015C0.495483 31.0481 9.45047 40.003 20.497 40.003Z" fill="url(#paint0_linear)"/>
<path d="M17.8013 32.3192C17.2088 32.3192 16.8137 31.9242 16.8137 31.3316V28.3689C16.8137 27.7764 17.2088 27.3813 17.8013 27.3813C18.3938 27.3813 18.7889 27.7764 18.7889 28.3689V31.3316C18.7889 31.9242 18.3938 32.3192 17.8013 32.3192Z" fill="white"/>
<path d="M22.0249 32.3192C21.4324 32.3192 21.0374 31.9242 21.0374 31.3316V28.3689C21.0374 27.7764 21.4324 27.3813 22.0249 27.3813C22.6175 27.3813 23.0125 27.7764 23.0125 28.3689V31.3316C23.0125 31.9242 22.6175 32.3192 22.0249 32.3192Z" fill="white"/>
<path d="M17.8014 11.9096C17.2089 11.9096 16.8138 11.5145 16.8138 10.922V7.95925C16.8138 7.36671 17.2089 6.97168 17.8014 6.97168C18.394 6.97168 18.789 7.36671 18.789 7.95925V10.922C18.789 11.5145 18.394 11.9096 17.8014 11.9096Z" fill="white"/>
<path d="M22.0251 11.9091C21.4325 11.9091 21.0375 11.514 21.0375 10.9215V7.95877C21.0375 7.36622 21.4325 6.97119 22.0251 6.97119C22.6176 6.97119 23.0126 7.36622 23.0126 7.95877V10.9215C23.0126 11.514 22.6176 11.9091 22.0251 11.9091Z" fill="white"/>
<path d="M19.476 9.8684H22.416C24.3013 9.8684 25.7947 10.2791 26.896 11.1004C28.016 11.9031 28.576 13.1071 28.576 14.7124C28.576 17.0831 27.456 18.6231 25.216 19.3324C27.8853 20.0977 29.22 21.5911 29.22 23.8124C29.22 27.6764 26.7933 29.6084 21.94 29.6084H13.12V27.1724C13.5867 27.0044 14.2867 26.7711 15.22 26.4724V13.1724L13.12 12.3324V10.0084L19.476 9.8684ZM21.1 20.8724H19.476V26.3324H21.8C22.7707 26.3324 23.508 26.1084 24.012 25.6604C24.5347 25.2124 24.796 24.5964 24.796 23.8124C24.796 22.8044 24.4973 22.0671 23.9 21.6004C23.3027 21.1151 22.3693 20.8724 21.1 20.8724ZM19.476 13.1724V17.9324H21.1C23.1907 17.9324 24.236 17.0644 24.236 15.3284C24.236 14.6191 24.012 14.0871 23.564 13.7324C23.1347 13.3591 22.5653 13.1724 21.856 13.1724H19.476Z" fill="white"/>
<defs>
<linearGradient id="paint0_linear" x1="34.409" y1="-3.7277" x2="-4.44784" y2="6.68395" gradientUnits="userSpaceOnUse">
<stop stop-color="#00BCD4"/>
<stop offset="1" stop-color="#2196F3"/>
</linearGradient>
</defs>
</svg>
