<svg width="21" height="40" viewBox="0 0 21 40" fill="none" xmlns="http://www.w3.org/2000/svg">
<path d="M2.14191 31.8848V29.4488L4.24191 28.7488V15.4488L2.14191 14.6088V12.2848L8.58191 12.1448H11.2419C14.0792 12.1448 16.2726 12.9661 17.8219 14.6088C19.3712 16.2514 20.1459 18.6314 20.1459 21.7488C20.1459 24.8848 19.3059 27.3581 17.6259 29.1688C15.9459 30.9794 13.6779 31.8848 10.8219 31.8848H2.14191ZM8.58191 15.4488V28.6088H10.9059C12.3619 28.6088 13.4819 28.0954 14.2659 27.0688C15.0499 26.0234 15.4419 24.2968 15.4419 21.8888C15.4419 19.6114 15.0686 17.9688 14.3219 16.9608C13.5939 15.9528 12.5206 15.4488 11.1019 15.4488H8.58191Z" fill="white"/>
<rect x="1" y="20" width="11" height="3" fill="white"/>
</svg>
