<svg width="40" height="41" viewBox="0 0 40 41" fill="none" xmlns="http://www.w3.org/2000/svg">
<mask id="mask0" mask-type="alpha" maskUnits="userSpaceOnUse" x="0" y="0" width="40" height="41">
<path d="M20 40.531C31.0457 40.531 40 31.5767 40 20.531C40 9.48531 31.0457 0.531006 20 0.531006C8.9543 0.531006 0 9.48531 0 20.531C0 31.5767 8.9543 40.531 20 40.531Z" fill="url(#paint0_linear)"/>
</mask>
<g mask="url(#mask0)">
<path d="M8.764 39.62C8.764 38.556 9.128 37.604 9.856 36.764C10.584 35.924 11.312 35.35 12.04 35.042L13.174 34.58C12.978 34.552 12.74 34.496 12.46 34.412C12.18 34.328 11.802 34.048 11.326 33.572C10.878 33.096 10.654 32.508 10.654 31.808C10.654 30.94 11.382 29.358 12.838 27.062C10.682 25.634 9.604 23.45 9.604 20.51C9.604 17.738 10.528 15.61 12.376 14.126C14.252 12.642 16.688 11.9 19.684 11.9C21.56 11.9 23.212 12.236 24.64 12.908L31.864 12.74V16.1L28.42 16.688C28.42 16.716 28.49 16.912 28.63 17.276C28.77 17.612 28.882 18.018 28.966 18.494C29.078 18.97 29.134 19.474 29.134 20.006C29.134 22.918 28.224 25.088 26.404 26.516C24.584 27.916 22.134 28.616 19.054 28.616C18.718 28.616 18.382 28.602 18.046 28.574C17.738 28.546 17.472 28.518 17.248 28.49C17.052 28.434 16.94 28.406 16.912 28.406L16.744 31.22H22.96C25.648 31.22 27.72 31.78 29.176 32.9C30.632 34.02 31.36 35.63 31.36 37.73C31.36 40.138 30.366 42.07 28.378 43.526C26.418 44.982 23.492 45.71 19.6 45.71C16.072 45.71 13.384 45.248 11.536 44.324C9.688 43.4 8.764 41.832 8.764 39.62ZM19.474 16.226C17.094 16.226 15.904 17.556 15.904 20.216C15.904 23.016 17.024 24.416 19.264 24.416C20.552 24.416 21.462 24.08 21.994 23.408C22.554 22.736 22.834 21.672 22.834 20.216C22.834 17.556 21.714 16.226 19.474 16.226ZM21.28 35.84H16.87C16.73 35.896 16.548 35.994 16.324 36.134C16.1 36.274 15.792 36.582 15.4 37.058C15.036 37.534 14.854 38.038 14.854 38.57C14.854 39.578 15.26 40.25 16.072 40.586C16.912 40.922 18.256 41.09 20.104 41.09C22.008 41.09 23.38 40.866 24.22 40.418C25.06 39.97 25.48 39.242 25.48 38.234C25.48 37.338 25.144 36.708 24.472 36.344C23.828 36.008 22.764 35.84 21.28 35.84Z" fill="white"/>
<path d="M31.798 13.292V15H24.56V13.292C25.288 12.704 25.8433 12.2513 26.226 11.934C26.6087 11.6167 27.0287 11.248 27.486 10.828C27.9527 10.3987 28.2933 10.0533 28.508 9.792C28.7227 9.52133 28.9047 9.23667 29.054 8.938C29.2033 8.63 29.278 8.34067 29.278 8.07C29.278 7.64067 29.1287 7.3 28.83 7.048C28.5313 6.796 28.1347 6.67 27.64 6.67C27.416 6.67 27.1967 6.69333 26.982 6.74C26.7673 6.77733 26.604 6.81467 26.492 6.852L26.338 6.922L26.198 8.112H24.728L24.658 5.522C25.7127 5.14867 26.7393 4.962 27.738 4.962C28.9513 4.962 29.8893 5.17667 30.552 5.606C31.224 6.026 31.56 6.73067 31.56 7.72C31.56 8.196 31.476 8.65333 31.308 9.092C31.1493 9.53067 30.8787 9.988 30.496 10.464C30.1133 10.9307 29.7073 11.3693 29.278 11.78C28.858 12.1813 28.298 12.6853 27.598 13.292H31.798Z" fill="white"/>
</g>
<defs>
<linearGradient id="paint0_linear" x1="0" y1="18.5183" x2="40.2532" y2="18.5183" gradientUnits="userSpaceOnUse">
<stop stop-color="#2196F3"/>
<stop offset="1" stop-color="#00BCD4"/>
</linearGradient>
</defs>
</svg>
