<?xml version="1.0" encoding="utf-8"?>
<!-- Generator: Adobe Illustrator 18.1.1, SVG Export Plug-In . SVG Version: 6.00 Build 0)  -->
<svg version="1.1" id="Layer_1" xmlns="http://www.w3.org/2000/svg" xmlns:xlink="http://www.w3.org/1999/xlink" x="0px" y="0px"
	 viewBox="0 0 540.9 146.6" enable-background="new 0 0 540.9 146.6" xml:space="preserve">
<g>
	<g>
		<path fill="#FF0078" d="M80.1,70.9c-0.1-0.1-0.2-0.3-0.3-0.4c-0.1-0.1-0.2-0.2-0.3-0.4c-0.1-0.1-0.3-0.2-0.4-0.3
			c-0.1-0.1-0.2-0.1-0.2-0.2L48.2,52.7L22.4,67.1l32.5,19.2L80.1,70.9C80.1,70.9,80.1,70.9,80.1,70.9"/>
		<path fill="#FFF200" d="M82,71.6C82,71.6,82,71.6,82,71.6C82,71.6,82,71.6,82,71.6c0-0.2,0-0.4-0.1-0.5c0-0.1,0-0.3-0.1-0.4
			c0-0.2-0.1-0.3-0.2-0.5c0-0.1-0.1-0.2-0.1-0.3L54.9,86.4v40.9l25.2-15.7c1.1-0.7,1.9-1.9,1.9-3.3V71.6z"/>
		<path fill="#231F20" d="M153.6,70.1c0.5-0.5,1-1,1.4-1.5c0.5-0.7,0.8-1.5,1-2.3c0.2-0.9,0.3-1.8,0.3-2.8c0-1.5-0.3-2.9-0.7-4.2
			c-0.5-1.3-1.2-2.4-2.2-3.3c-1.2-1.2-2.7-2.1-4.3-2.7c-1.6-0.6-3.3-0.9-5.1-0.9h-19.4c-0.7,0-1.3,0.6-1.3,1.3v37.6
			c0,0.7,0.6,1.3,1.3,1.3h20.2c1.9,0,3.8-0.3,5.4-1c1.7-0.7,3.1-1.6,4.4-2.8c1.2-1.1,2.2-2.5,2.8-4c0.7-1.5,1-3.2,1-5
			c0-2.6-0.7-5-2.1-6.9C155.6,71.7,154.7,70.8,153.6,70.1 M144.9,84.1h-12.4v-9h12.7c0.7,0,1.3,0.1,1.9,0.4c0.6,0.3,1.2,0.7,1.6,1.1
			c0.6,0.7,0.9,1.7,0.9,2.9c0,0.6-0.1,1.3-0.3,1.8c-0.2,0.5-0.4,1-0.8,1.3c-0.5,0.4-1,0.8-1.7,1.1C146.2,84,145.5,84.1,144.9,84.1
			 M146.6,66c-0.2,0.3-0.5,0.5-0.9,0.7c-0.3,0.2-0.6,0.2-1,0.2h-12.2v-6.3h11.2c1.2,0,2.1,0.3,2.8,0.9c0.6,0.5,0.9,1.3,0.9,2.2
			C147.3,64.6,147.1,65.4,146.6,66"/>
		<path fill="#231F20" d="M175.1,52.3h-6.6c-0.7,0-1.3,0.6-1.3,1.3v37.6c0,0.7,0.6,1.3,1.3,1.3h28.3c0.7,0,1.3-0.6,1.3-1.3v-5.9
			c0-0.7-0.6-1.3-1.3-1.3h-20.5V53.6C176.4,52.9,175.8,52.3,175.1,52.3"/>
		<path fill="#231F20" d="M236.9,57.1c-1.9-1.9-4.1-3.3-6.7-4.3c-2.5-1-5.4-1.5-8.4-1.5c-3.2,0-6.1,0.6-8.7,1.7
			c-2.6,1.1-4.9,2.7-6.8,4.7c-1.8,1.9-3.2,4-4.1,6.5c-1,2.4-1.5,5.1-1.5,7.9c0,2.7,0.5,5.2,1.5,7.7c1,2.4,2.3,4.6,4,6.4
			c1.9,2,4.1,3.6,6.8,4.8c2.7,1.2,5.6,1.8,8.8,1.8c3.2,0,6.1-0.5,8.6-1.6c2.6-1.1,4.8-2.6,6.7-4.6c1.8-1.9,3.2-4.1,4.2-6.5
			c1-2.5,1.5-5.1,1.5-8c0-2.9-0.5-5.6-1.5-8.1C240.3,61.3,238.8,59.1,236.9,57.1 M233.7,72c0,1.8-0.3,3.4-0.9,4.8
			c-0.6,1.4-1.4,2.7-2.3,3.8c-1.1,1.2-2.4,2.1-3.9,2.7c-3,1.3-6.8,1.3-9.7,0c-1.5-0.7-2.8-1.6-3.8-2.8c-1-1.1-1.8-2.3-2.4-3.8
			c-0.6-1.4-0.9-3-0.9-4.8c0-1.8,0.3-3.4,0.9-4.8c0.6-1.4,1.4-2.7,2.4-3.8c1.1-1.2,2.4-2.1,3.9-2.7c1.5-0.6,3.1-1,4.8-1
			c1.7,0,3.3,0.3,4.8,1c1.5,0.6,2.8,1.5,3.9,2.7c1,1,1.8,2.3,2.4,3.7C233.4,68.5,233.7,70.2,233.7,72"/>
		<path fill="#231F20" d="M260.6,63.5c1.1-1.1,2.4-1.9,3.8-2.5c3.2-1.3,7.3-1.1,10.2,0.2c1.3,0.6,4,2.6,5.2,3.6
			c0.3,0.3,0.8,0.2,1.1-0.1l4.5-5.1c0.3-0.3,0.3-0.9-0.1-1.2c-1.6-1.2-5.5-4.3-7.5-5.1c-2.5-1.1-5.5-1.6-8.8-1.6
			c-3.1,0-5.9,0.5-8.5,1.6c-2.6,1-4.8,2.5-6.7,4.4c-1.9,1.9-3.3,4.1-4.4,6.6c-1,2.5-1.6,5.2-1.6,8.1c0,3,0.5,5.7,1.6,8.2
			c1,2.5,2.6,4.7,4.5,6.6c1.9,1.9,4.1,3.3,6.7,4.4c2.5,1,5.3,1.6,8.4,1.6c3.3,0,6.3-0.5,8.8-1.5c2-0.8,5.9-4,7.5-5.2
			c0.4-0.3,0.4-0.8,0.1-1.1l-4.5-5c-0.3-0.3-0.7-0.4-1.1-0.1c-1.2,0.9-3.9,3-5.2,3.5c-3,1.3-7,1.5-10.3,0.1
			c-1.5-0.6-2.8-1.6-3.9-2.7c-1-1-1.8-2.2-2.4-3.7c-0.6-1.5-0.9-3.1-0.9-5c0-1.8,0.3-3.4,0.9-5C258.7,65.9,259.5,64.5,260.6,63.5"/>
		<path fill="#231F20" d="M329.5,52.3h-8.7c-0.6,0-1.1,0.3-1.5,0.8l-9.7,13.7h-6V53.6c0-0.7-0.6-1.3-1.3-1.3h-6.6
			c-0.7,0-1.3,0.6-1.3,1.3v37.6c0,0.7,0.6,1.3,1.3,1.3h6.6c0.7,0,1.3-0.6,1.3-1.3V75.3h6.1l10.7,16.3c0.3,0.5,0.9,0.8,1.5,0.8h8.5
			c0.5,0,0.8-0.5,0.5-0.9l-13.5-20.6L330,53.3C330.2,52.9,330,52.3,329.5,52.3"/>
		<path fill="#231F20" d="M347.2,63.5c1.1-1.1,2.4-2,3.8-2.5c3.2-1.3,7.3-1.1,10.2,0.2c1.3,0.6,4,2.6,5.2,3.6
			c0.3,0.3,0.8,0.2,1.1-0.1l4.5-5.1c0.3-0.3,0.3-0.9-0.1-1.2c-1.6-1.2-5.5-4.3-7.5-5.1c-2.5-1.1-5.5-1.6-8.8-1.6
			c-3.1,0-5.9,0.5-8.5,1.6c-2.6,1-4.8,2.5-6.7,4.4c-1.9,1.9-3.3,4.1-4.4,6.6c-1,2.5-1.6,5.2-1.6,8.1c0,3,0.5,5.7,1.6,8.2
			c1,2.5,2.6,4.7,4.5,6.6c1.9,1.9,4.1,3.3,6.7,4.4c2.5,1,5.3,1.6,8.4,1.6c3.3,0,6.3-0.5,8.8-1.5c2-0.8,5.9-4,7.5-5.2
			c0.4-0.3,0.4-0.8,0.1-1.1l-4.5-5c-0.3-0.3-0.7-0.4-1.1-0.1c-1.2,0.9-3.9,3-5.2,3.5c-3,1.3-7,1.5-10.3,0.1
			c-1.5-0.6-2.8-1.6-3.9-2.7c-1-1-1.8-2.2-2.4-3.7c-0.6-1.5-0.9-3.1-0.9-5c0-1.8,0.3-3.4,0.9-5C345.3,65.9,346.2,64.5,347.2,63.5"/>
		<path fill="#231F20" d="M407,66.4h-17.4V53.2c0-0.7-0.6-1.3-1.3-1.3h-6.6c-0.7,0-1.3,0.6-1.3,1.3v37.6c0,0.7,0.6,1.3,1.3,1.3h6.6
			c0.7,0,1.3-0.6,1.3-1.3V74.9H407v15.9c0,0.7,0.6,1.3,1.3,1.3h6.6c0.7,0,1.3-0.6,1.3-1.3V53.2c0-0.7-0.6-1.3-1.3-1.3h-6.6
			c-0.7,0-1.3,0.6-1.3,1.3V66.4z"/>
		<path fill="#231F20" d="M440,53.4L423,91.6c-0.2,0.4,0.1,0.8,0.5,0.8h7.6c0.7,0,1.4-0.4,1.7-1.1l2.6-5.8H454l2.7,5.8
			c0.3,0.6,0.9,1.1,1.7,1.1h7.8c0.4,0,0.7-0.4,0.5-0.8l-16.9-38.1c-0.3-0.7-0.9-1.1-1.7-1.1h-6.4C440.9,52.3,440.2,52.7,440,53.4
			 M450.5,77.1H439l5.6-14.4L450.5,77.1z"/>
		<path fill="#231F20" d="M474.9,92.4h6.5c0.7,0,1.3-0.6,1.3-1.3V53.6c0-0.7-0.6-1.3-1.3-1.3h-6.5c-0.7,0-1.3,0.6-1.3,1.3v37.6
			C473.6,91.8,474.2,92.4,474.9,92.4"/>
		<path fill="#231F20" d="M522.3,80.1c0.7-0.4,1.3-0.8,1.9-1.3c0.9-0.7,1.7-1.6,2.5-2.5c2-2.5,2.9-5.5,2.9-9c0-2.2-0.4-4.2-1.2-6
			c-0.8-1.8-1.9-3.3-3.2-4.7c-1.4-1.4-3.1-2.5-5-3.2c-1.9-0.7-3.9-1.1-6-1.1h-18.5c-0.7,0-1.3,0.6-1.3,1.3v37.6
			c0,0.7,0.6,1.3,1.3,1.3h6.6c0.7,0,1.3-0.6,1.3-1.3v-9h9.7l5.6,9.3c0.3,0.6,0.9,0.9,1.6,0.9h8.7c0.3,0,0.5-0.4,0.4-0.7L522.3,80.1z
			 M503.5,60.9H514c1,0,2,0.2,2.8,0.6c0.9,0.4,1.5,0.9,2.1,1.6c1.1,1.1,1.6,2.5,1.6,4.3c0,0.8-0.1,1.6-0.4,2.4
			c-0.3,0.8-0.7,1.4-1.3,2.1c-0.5,0.6-1.1,1-1.8,1.3c-0.8,0.3-1.7,0.5-2.6,0.5h-10.8V60.9z"/>
		<path fill="#A42EFF" d="M50.1,88.8l-4.6,0.5l-21.9,14.5c-2.2,1.4-2.1,4.6,0.1,5.9L45,122.2L50.1,88.8"/>
		<path fill="#21DFF3" d="M22.4,67.2l25.7-14.6V17.7c0-2.2-2.4-3.7-4.4-2.6L22.4,26.9V67.2z"/>
		<path fill="#231F20" d="M83.2,72c0-0.2,0-0.3-0.1-0.5c0-0.1,0-0.3-0.1-0.4c0-0.2-0.1-0.3-0.2-0.5c-0.1-0.1-0.1-0.3-0.2-0.4
			c-0.1-0.1-0.2-0.3-0.3-0.4c-0.1-0.1-0.2-0.2-0.3-0.4c-0.1-0.1-0.3-0.2-0.4-0.3c-0.1-0.1-0.2-0.2-0.3-0.3c0,0,0,0,0,0c0,0,0,0,0,0
			l-31-17.1V13.7c0-1.3-0.7-2.5-1.8-3.1c-1.1-0.7-2.4-0.7-3.6-0.1L12.2,28.2c-1.2,0.6-1.9,1.9-1.9,3.2v40.7c0,0.2,0,0.3,0.1,0.5
			c0,0.1,0,0.3,0.1,0.4c0,0.2,0.1,0.4,0.2,0.5c0,0.1,0.1,0.2,0.1,0.3c0.1,0.2,0.3,0.4,0.4,0.5c0.1,0.1,0.1,0.1,0.2,0.2
			c0.2,0.2,0.5,0.4,0.7,0.6c0,0,0,0,0,0l27.9,16.5l-28,18.5c0,0,0,0-0.1,0c-0.1,0.1-0.2,0.2-0.3,0.3c-0.1,0.1-0.2,0.1-0.2,0.2
			c-0.1,0.1-0.1,0.2-0.2,0.3c-0.1,0.1-0.2,0.2-0.2,0.3c0,0,0,0,0,0.1c0,0.1-0.1,0.1-0.1,0.2c-0.1,0.1-0.1,0.2-0.2,0.4
			c0,0.1-0.1,0.2-0.1,0.3c0,0.1-0.1,0.2-0.1,0.4c0,0.1,0,0.2,0,0.3c0,0.1,0,0.2,0,0.4c0,0.1,0,0.2,0,0.3c0,0.1,0,0.2,0.1,0.4
			c0,0.1,0.1,0.2,0.1,0.3c0,0.1,0.1,0.2,0.1,0.3c0.1,0.1,0.1,0.2,0.2,0.3c0,0.1,0.1,0.1,0.1,0.2c0,0,0,0,0,0.1
			c0.2,0.2,0.3,0.4,0.5,0.6c0,0,0.1,0.1,0.1,0.1c0.1,0.1,0.3,0.2,0.4,0.3L44.9,136c0,0,0,0,0,0c0,0,0,0,0,0c0.2,0.1,0.4,0.2,0.6,0.2
			c0.1,0,0.2,0.1,0.3,0.1c0.3,0.1,0.6,0.1,0.8,0.1c0,0,0.1,0,0.1,0c0,0,0,0,0,0c0,0,0,0,0,0c0,0,0,0,0.1,0c0.3,0,0.6,0,0.9-0.1
			c0.1,0,0.2-0.1,0.3-0.1c0.2-0.1,0.4-0.1,0.6-0.3c0,0,0,0,0,0l32.9-19.5c1.1-0.7,1.8-1.8,1.8-3.1V72C83.2,72.1,83.2,72,83.2,72
			C83.2,72,83.2,72,83.2,72 M17.5,33.5l25.6-13.8v32.1L17.5,65.9V33.5z M21.2,72.2l25.6-14.1l25.6,14.1L46.8,87.3L21.2,72.2z
			 M43.2,98.2v28.2L20.7,113L43.2,98.2z M76,111.4l-25.6,15.2V93.6L76,78.4V111.4z"/>
	</g>
</g>
</svg>
