<svg width="28" height="28" viewBox="0 0 28 28" fill="none" xmlns="http://www.w3.org/2000/svg">
<line y1="0.5" x2="7" y2="0.5" stroke="black" stroke-opacity="0.54"/>
<line x1="0.5" y1="1" x2="0.5" y2="7.125" stroke="black" stroke-opacity="0.54"/>
<line x1="0.5" y1="28" x2="0.5" y2="21" stroke="black" stroke-opacity="0.54"/>
<line x1="1" y1="27.5" x2="7.125" y2="27.5" stroke="black" stroke-opacity="0.54"/>
<line y1="-0.5" x2="7" y2="-0.5" transform="matrix(-1 0 0 1 28 1)" stroke="black" stroke-opacity="0.54"/>
<line y1="-0.5" x2="6.125" y2="-0.5" transform="matrix(4.37114e-08 1 1 -4.37114e-08 28 1)" stroke="black" stroke-opacity="0.54"/>
<line y1="-0.5" x2="7" y2="-0.5" transform="matrix(4.37114e-08 -1 -1 -4.37114e-08 27 28)" stroke="black" stroke-opacity="0.54"/>
<line y1="-0.5" x2="6.125" y2="-0.5" transform="matrix(-1 0 0 1 27 28)" stroke="black" stroke-opacity="0.54"/>
<path d="M4 4H4.95238V4.95238H4V4ZM4.95238 4H5.90476V4.95238H4.95238V4ZM5.90476 4H6.85714V4.95238H5.90476V4ZM6.85714 4H7.80952V4.95238H6.85714V4ZM7.80952 4H8.7619V4.95238H7.80952V4ZM8.7619 4H9.71429V4.95238H8.7619V4ZM9.71429 4H10.6667V4.95238H9.71429V4ZM13.5238 4H14.4762V4.95238H13.5238V4ZM14.4762 4H15.4286V4.95238H14.4762V4ZM15.4286 4H16.381V4.95238H15.4286V4ZM17.3333 4H18.2857V4.95238H17.3333V4ZM18.2857 4H19.2381V4.95238H18.2857V4ZM19.2381 4H20.1905V4.95238H19.2381V4ZM20.1905 4H21.1429V4.95238H20.1905V4ZM21.1429 4H22.0952V4.95238H21.1429V4ZM22.0952 4H23.0476V4.95238H22.0952V4ZM23.0476 4H24V4.95238H23.0476V4ZM4 4.95238H4.95238V5.90476H4V4.95238ZM9.71429 4.95238H10.6667V5.90476H9.71429V4.95238ZM11.619 4.95238H12.5714V5.90476H11.619V4.95238ZM12.5714 4.95238H13.5238V5.90476H12.5714V4.95238ZM13.5238 4.95238H14.4762V5.90476H13.5238V4.95238ZM15.4286 4.95238H16.381V5.90476H15.4286V4.95238ZM17.3333 4.95238H18.2857V5.90476H17.3333V4.95238ZM23.0476 4.95238H24V5.90476H23.0476V4.95238ZM4 5.90476H4.95238V6.85714H4V5.90476ZM5.90476 5.90476H6.85714V6.85714H5.90476V5.90476ZM6.85714 5.90476H7.80952V6.85714H6.85714V5.90476ZM7.80952 5.90476H8.7619V6.85714H7.80952V5.90476ZM9.71429 5.90476H10.6667V6.85714H9.71429V5.90476ZM13.5238 5.90476H14.4762V6.85714H13.5238V5.90476ZM14.4762 5.90476H15.4286V6.85714H14.4762V5.90476ZM15.4286 5.90476H16.381V6.85714H15.4286V5.90476ZM17.3333 5.90476H18.2857V6.85714H17.3333V5.90476ZM19.2381 5.90476H20.1905V6.85714H19.2381V5.90476ZM20.1905 5.90476H21.1429V6.85714H20.1905V5.90476ZM21.1429 5.90476H22.0952V6.85714H21.1429V5.90476ZM23.0476 5.90476H24V6.85714H23.0476V5.90476ZM4 6.85714H4.95238V7.80952H4V6.85714ZM5.90476 6.85714H6.85714V7.80952H5.90476V6.85714ZM6.85714 6.85714H7.80952V7.80952H6.85714V6.85714ZM7.80952 6.85714H8.7619V7.80952H7.80952V6.85714ZM9.71429 6.85714H10.6667V7.80952H9.71429V6.85714ZM11.619 6.85714H12.5714V7.80952H11.619V6.85714ZM12.5714 6.85714H13.5238V7.80952H12.5714V6.85714ZM15.4286 6.85714H16.381V7.80952H15.4286V6.85714ZM17.3333 6.85714H18.2857V7.80952H17.3333V6.85714ZM19.2381 6.85714H20.1905V7.80952H19.2381V6.85714ZM20.1905 6.85714H21.1429V7.80952H20.1905V6.85714ZM21.1429 6.85714H22.0952V7.80952H21.1429V6.85714ZM23.0476 6.85714H24V7.80952H23.0476V6.85714ZM4 7.80952H4.95238V8.7619H4V7.80952ZM5.90476 7.80952H6.85714V8.7619H5.90476V7.80952ZM6.85714 7.80952H7.80952V8.7619H6.85714V7.80952ZM7.80952 7.80952H8.7619V8.7619H7.80952V7.80952ZM9.71429 7.80952H10.6667V8.7619H9.71429V7.80952ZM12.5714 7.80952H13.5238V8.7619H12.5714V7.80952ZM15.4286 7.80952H16.381V8.7619H15.4286V7.80952ZM17.3333 7.80952H18.2857V8.7619H17.3333V7.80952ZM19.2381 7.80952H20.1905V8.7619H19.2381V7.80952ZM20.1905 7.80952H21.1429V8.7619H20.1905V7.80952ZM21.1429 7.80952H22.0952V8.7619H21.1429V7.80952ZM23.0476 7.80952H24V8.7619H23.0476V7.80952ZM4 8.7619H4.95238V9.71429H4V8.7619ZM9.71429 8.7619H10.6667V9.71429H9.71429V8.7619ZM11.619 8.7619H12.5714V9.71429H11.619V8.7619ZM14.4762 8.7619H15.4286V9.71429H14.4762V8.7619ZM17.3333 8.7619H18.2857V9.71429H17.3333V8.7619ZM23.0476 8.7619H24V9.71429H23.0476V8.7619ZM4 9.71429H4.95238V10.6667H4V9.71429ZM4.95238 9.71429H5.90476V10.6667H4.95238V9.71429ZM5.90476 9.71429H6.85714V10.6667H5.90476V9.71429ZM6.85714 9.71429H7.80952V10.6667H6.85714V9.71429ZM7.80952 9.71429H8.7619V10.6667H7.80952V9.71429ZM8.7619 9.71429H9.71429V10.6667H8.7619V9.71429ZM9.71429 9.71429H10.6667V10.6667H9.71429V9.71429ZM11.619 9.71429H12.5714V10.6667H11.619V9.71429ZM13.5238 9.71429H14.4762V10.6667H13.5238V9.71429ZM15.4286 9.71429H16.381V10.6667H15.4286V9.71429ZM17.3333 9.71429H18.2857V10.6667H17.3333V9.71429ZM18.2857 9.71429H19.2381V10.6667H18.2857V9.71429ZM19.2381 9.71429H20.1905V10.6667H19.2381V9.71429ZM20.1905 9.71429H21.1429V10.6667H20.1905V9.71429ZM21.1429 9.71429H22.0952V10.6667H21.1429V9.71429ZM22.0952 9.71429H23.0476V10.6667H22.0952V9.71429ZM23.0476 9.71429H24V10.6667H23.0476V9.71429ZM12.5714 10.6667H13.5238V11.619H12.5714V10.6667ZM4 11.619H4.95238V12.5714H4V11.619ZM4.95238 11.619H5.90476V12.5714H4.95238V11.619ZM5.90476 11.619H6.85714V12.5714H5.90476V11.619ZM6.85714 11.619H7.80952V12.5714H6.85714V11.619ZM7.80952 11.619H8.7619V12.5714H7.80952V11.619ZM9.71429 11.619H10.6667V12.5714H9.71429V11.619ZM10.6667 11.619H11.619V12.5714H10.6667V11.619ZM11.619 11.619H12.5714V12.5714H11.619V11.619ZM14.4762 11.619H15.4286V12.5714H14.4762V11.619ZM16.381 11.619H17.3333V12.5714H16.381V11.619ZM18.2857 11.619H19.2381V12.5714H18.2857V11.619ZM20.1905 11.619H21.1429V12.5714H20.1905V11.619ZM22.0952 11.619H23.0476V12.5714H22.0952V11.619ZM4 12.5714H4.95238V13.5238H4V12.5714ZM4.95238 12.5714H5.90476V13.5238H4.95238V12.5714ZM5.90476 12.5714H6.85714V13.5238H5.90476V12.5714ZM7.80952 12.5714H8.7619V13.5238H7.80952V12.5714ZM10.6667 12.5714H11.619V13.5238H10.6667V12.5714ZM12.5714 12.5714H13.5238V13.5238H12.5714V12.5714ZM15.4286 12.5714H16.381V13.5238H15.4286V12.5714ZM18.2857 12.5714H19.2381V13.5238H18.2857V12.5714ZM19.2381 12.5714H20.1905V13.5238H19.2381V12.5714ZM21.1429 12.5714H22.0952V13.5238H21.1429V12.5714ZM23.0476 12.5714H24V13.5238H23.0476V12.5714ZM4.95238 13.5238H5.90476V14.4762H4.95238V13.5238ZM5.90476 13.5238H6.85714V14.4762H5.90476V13.5238ZM9.71429 13.5238H10.6667V14.4762H9.71429V13.5238ZM10.6667 13.5238H11.619V14.4762H10.6667V13.5238ZM15.4286 13.5238H16.381V14.4762H15.4286V13.5238ZM16.381 13.5238H17.3333V14.4762H16.381V13.5238ZM17.3333 13.5238H18.2857V14.4762H17.3333V13.5238ZM21.1429 13.5238H22.0952V14.4762H21.1429V13.5238ZM4 14.4762H4.95238V15.4286H4V14.4762ZM4.95238 14.4762H5.90476V15.4286H4.95238V14.4762ZM7.80952 14.4762H8.7619V15.4286H7.80952V14.4762ZM12.5714 14.4762H13.5238V15.4286H12.5714V14.4762ZM13.5238 14.4762H14.4762V15.4286H13.5238V14.4762ZM14.4762 14.4762H15.4286V15.4286H14.4762V14.4762ZM16.381 14.4762H17.3333V15.4286H16.381V14.4762ZM18.2857 14.4762H19.2381V15.4286H18.2857V14.4762ZM20.1905 14.4762H21.1429V15.4286H20.1905V14.4762ZM21.1429 14.4762H22.0952V15.4286H21.1429V14.4762ZM22.0952 14.4762H23.0476V15.4286H22.0952V14.4762ZM4 15.4286H4.95238V16.381H4V15.4286ZM5.90476 15.4286H6.85714V16.381H5.90476V15.4286ZM8.7619 15.4286H9.71429V16.381H8.7619V15.4286ZM9.71429 15.4286H10.6667V16.381H9.71429V15.4286ZM10.6667 15.4286H11.619V16.381H10.6667V15.4286ZM11.619 15.4286H12.5714V16.381H11.619V15.4286ZM13.5238 15.4286H14.4762V16.381H13.5238V15.4286ZM15.4286 15.4286H16.381V16.381H15.4286V15.4286ZM17.3333 15.4286H18.2857V16.381H17.3333V15.4286ZM18.2857 15.4286H19.2381V16.381H18.2857V15.4286ZM23.0476 15.4286H24V16.381H23.0476V15.4286ZM11.619 16.381H12.5714V17.3333H11.619V16.381ZM12.5714 16.381H13.5238V17.3333H12.5714V16.381ZM13.5238 16.381H14.4762V17.3333H13.5238V16.381ZM14.4762 16.381H15.4286V17.3333H14.4762V16.381ZM17.3333 16.381H18.2857V17.3333H17.3333V16.381ZM18.2857 16.381H19.2381V17.3333H18.2857V16.381ZM19.2381 16.381H20.1905V17.3333H19.2381V16.381ZM20.1905 16.381H21.1429V17.3333H20.1905V16.381ZM4 17.3333H4.95238V18.2857H4V17.3333ZM4.95238 17.3333H5.90476V18.2857H4.95238V17.3333ZM5.90476 17.3333H6.85714V18.2857H5.90476V17.3333ZM6.85714 17.3333H7.80952V18.2857H6.85714V17.3333ZM7.80952 17.3333H8.7619V18.2857H7.80952V17.3333ZM8.7619 17.3333H9.71429V18.2857H8.7619V17.3333ZM9.71429 17.3333H10.6667V18.2857H9.71429V17.3333ZM11.619 17.3333H12.5714V18.2857H11.619V17.3333ZM14.4762 17.3333H15.4286V18.2857H14.4762V17.3333ZM15.4286 17.3333H16.381V18.2857H15.4286V17.3333ZM18.2857 17.3333H19.2381V18.2857H18.2857V17.3333ZM21.1429 17.3333H22.0952V18.2857H21.1429V17.3333ZM22.0952 17.3333H23.0476V18.2857H22.0952V17.3333ZM4 18.2857H4.95238V19.2381H4V18.2857ZM9.71429 18.2857H10.6667V19.2381H9.71429V18.2857ZM12.5714 18.2857H13.5238V19.2381H12.5714V18.2857ZM13.5238 18.2857H14.4762V19.2381H13.5238V18.2857ZM16.381 18.2857H17.3333V19.2381H16.381V18.2857ZM20.1905 18.2857H21.1429V19.2381H20.1905V18.2857ZM21.1429 18.2857H22.0952V19.2381H21.1429V18.2857ZM22.0952 18.2857H23.0476V19.2381H22.0952V18.2857ZM4 19.2381H4.95238V20.1905H4V19.2381ZM5.90476 19.2381H6.85714V20.1905H5.90476V19.2381ZM6.85714 19.2381H7.80952V20.1905H6.85714V19.2381ZM7.80952 19.2381H8.7619V20.1905H7.80952V19.2381ZM9.71429 19.2381H10.6667V20.1905H9.71429V19.2381ZM11.619 19.2381H12.5714V20.1905H11.619V19.2381ZM15.4286 19.2381H16.381V20.1905H15.4286V19.2381ZM17.3333 19.2381H18.2857V20.1905H17.3333V19.2381ZM22.0952 19.2381H23.0476V20.1905H22.0952V19.2381ZM23.0476 19.2381H24V20.1905H23.0476V19.2381ZM4 20.1905H4.95238V21.1429H4V20.1905ZM5.90476 20.1905H6.85714V21.1429H5.90476V20.1905ZM6.85714 20.1905H7.80952V21.1429H6.85714V20.1905ZM7.80952 20.1905H8.7619V21.1429H7.80952V20.1905ZM9.71429 20.1905H10.6667V21.1429H9.71429V20.1905ZM11.619 20.1905H12.5714V21.1429H11.619V20.1905ZM14.4762 20.1905H15.4286V21.1429H14.4762V20.1905ZM18.2857 20.1905H19.2381V21.1429H18.2857V20.1905ZM19.2381 20.1905H20.1905V21.1429H19.2381V20.1905ZM20.1905 20.1905H21.1429V21.1429H20.1905V20.1905ZM4 21.1429H4.95238V22.0952H4V21.1429ZM5.90476 21.1429H6.85714V22.0952H5.90476V21.1429ZM6.85714 21.1429H7.80952V22.0952H6.85714V21.1429ZM7.80952 21.1429H8.7619V22.0952H7.80952V21.1429ZM9.71429 21.1429H10.6667V22.0952H9.71429V21.1429ZM11.619 21.1429H12.5714V22.0952H11.619V21.1429ZM13.5238 21.1429H14.4762V22.0952H13.5238V21.1429ZM14.4762 21.1429H15.4286V22.0952H14.4762V21.1429ZM15.4286 21.1429H16.381V22.0952H15.4286V21.1429ZM16.381 21.1429H17.3333V22.0952H16.381V21.1429ZM20.1905 21.1429H21.1429V22.0952H20.1905V21.1429ZM4 22.0952H4.95238V23.0476H4V22.0952ZM9.71429 22.0952H10.6667V23.0476H9.71429V22.0952ZM11.619 22.0952H12.5714V23.0476H11.619V22.0952ZM12.5714 22.0952H13.5238V23.0476H12.5714V22.0952ZM14.4762 22.0952H15.4286V23.0476H14.4762V22.0952ZM15.4286 22.0952H16.381V23.0476H15.4286V22.0952ZM16.381 22.0952H17.3333V23.0476H16.381V22.0952ZM18.2857 22.0952H19.2381V23.0476H18.2857V22.0952ZM19.2381 22.0952H20.1905V23.0476H19.2381V22.0952ZM20.1905 22.0952H21.1429V23.0476H20.1905V22.0952ZM21.1429 22.0952H22.0952V23.0476H21.1429V22.0952ZM4 23.0476H4.95238V24H4V23.0476ZM4.95238 23.0476H5.90476V24H4.95238V23.0476ZM5.90476 23.0476H6.85714V24H5.90476V23.0476ZM6.85714 23.0476H7.80952V24H6.85714V23.0476ZM7.80952 23.0476H8.7619V24H7.80952V23.0476ZM8.7619 23.0476H9.71429V24H8.7619V23.0476ZM9.71429 23.0476H10.6667V24H9.71429V23.0476ZM11.619 23.0476H12.5714V24H11.619V23.0476ZM13.5238 23.0476H14.4762V24H13.5238V23.0476ZM17.3333 23.0476H18.2857V24H17.3333V23.0476ZM20.1905 23.0476H21.1429V24H20.1905V23.0476ZM22.0952 23.0476H23.0476V24H22.0952V23.0476Z" fill="black" fill-opacity="0.54"/>
</svg>
